:FULLY-SPECIFIED
:FORCE-ALL-JOINTS-BE-3DOF
:DEGREES
577
root 7.1027 16.1188 -3.49964 -169.163 74.045 -175.255
lfemur -19.3622 4.13593 -18.1704
ltibia 51.0006 -0 0
lfoot -34.5917 5.0137 0.114436
ltoes -1.67496 0 0
rfemur -46.9277 -9.12811 10.3597
rtibia 44.0346 -0 0
rfoot 12.266 9.68115 0.00455225
rtoes -29.9002 0 0
lowerback 6.8056 -0.854002 -2.74298
upperback 2.72778 -1.12531 3.50914
thorax -0.859163 -0.544583 5.26162
lowerneck -4.56521 -13.7329 -4.19841
upperneck 10.4619 -18.6799 5.83422
head 4.83828 -9.01113 1.2749
lclavicle 2.39275e-14 -1.95271e-14 1.98238e-30
lhumerus -38.5107 -17.6788 94.4021
lradius 54.0719 -0 0
lwrist 22.6132 0 0
lhand -21.4321 -4.53749 0.0218454
lfingers 7.12502 -0 0
lthumb 4.95705 25.3805 0.0207283
rclavicle 2.39275e-14 -1.95271e-14 1.98238e-30
rhumerus 25.3368 17.0937 -74.528
rradius 134.027 -0 0
rwrist -44.0293 0 0
rhand -26.3671 -20.6749 0.00602248
rfingers 7.12502 -0 0
rthumb 0.191244 -50.6542 0.00582022
578
root 7.01749 16.1506 -3.48922 -168.151 75.4349 -174.171
lfemur -19.0776 4.31576 -18.2559
ltibia 50.251 -0 0
lfoot -34.2705 5.87 0.11926
ltoes -1.24289 0 0
rfemur -46.9264 -9.55902 10.895
rtibia 45.6932 -0 0
rfoot 12.196 9.52511 0.00474395
rtoes -28.5889 0 0
lowerback 6.5841 -0.876476 -2.97905
upperback 2.65505 -1.17786 3.3832
thorax -0.802724 -0.57589 5.26342
lowerneck -4.67226 -13.6719 -4.15471
upperneck 10.6609 -18.6187 5.87467
head 4.91442 -8.96895 1.27025
lclavicle 2.22975e-14 -1.66063e-14 2.06586e-30
lhumerus -37.2108 -18.7058 93.4734
lradius 53.959 -0 0
lwrist 22.8348 0 0
lhand -21.2374 -4.26799 0.0227656
lfingers 7.12502 -0 0
lthumb 5.14506 25.6454 0.0216014
rclavicle 2.22975e-14 -1.66063e-14 2.06586e-30
rhumerus 25.3653 17.0395 -74.3416
rradius 134.022 -0 0
rwrist -44.0469 0 0
rhand -26.284 -20.5008 0.00627611
rfingers 7.12502 -0 0
rthumb 0.271458 -50.4799 0.00606532
579
root 6.9315 16.1827 -3.47872 -166.908 76.8316 -172.855
lfemur -18.7907 4.49766 -18.3412
ltibia 49.4944 -0 0
lfoot -33.9462 6.73416 0.11926
ltoes -0.80686 0 0
rfemur -46.9293 -9.99389 11.4358
rtibia 47.367 -0 0
rfoot 12.1252 9.36763 0.00474395
rtoes -27.2657 0 0
lowerback 6.36066 -0.900082 -3.2172
upperback 2.58177 -1.23104 3.25617
thorax -0.745769 -0.607485 5.26521
lowerneck -4.78021 -13.6103 -4.11074
upperneck 10.8617 -18.5572 5.9157
head 4.99124 -8.92638 1.26561
lclavicle 2.06525e-14 -1.36587e-14 2.06586e-30
lhumerus -35.8731 -19.7215 92.5056
lradius 53.845 -0 0
lwrist 23.0586 0 0
lhand -21.0409 -3.996 0.0227656
lfingers 7.12502 -0 0
lthumb 5.3348 25.9126 0.0216014
rclavicle 2.06525e-14 -1.36587e-14 2.06586e-30
rhumerus 25.3939 16.9848 -74.1537
rradius 134.016 -0 0
rwrist -44.0646 0 0
rhand -26.2002 -20.325 0.00627611
rfingers 7.12502 -0 0
rthumb 0.352406 -50.3041 0.00606532
580
root 6.8463 16.2145 -3.46831 -165.379 78.2076 -171.254
lfemur -18.5066 4.67833 -18.4249
ltibia 48.7448 -0 0
lfoot -33.625 7.59047 0.114436
ltoes -0.37479 0 0
rfemur -46.9362 -10.4247 11.9725
rtibia 49.0256 -0 0
rfoot 12.0552 9.21159 0.00455225
rtoes -25.9544 0 0
lowerback 6.13935 -0.924388 -3.4531
upperback 2.50927 -1.28391 3.13036
thorax -0.689332 -0.638794 5.26695
lowerneck -4.88711 -13.5491 -4.0673
upperneck 11.0607 -18.4963 5.95657
head 5.06736 -8.88418 1.26108
lclavicle 1.90225e-14 -1.07378e-14 1.98238e-30
lhumerus -34.5211 -20.7063 91.5156
lradius 53.7321 -0 0
lwrist 23.2802 0 0
lhand -20.8462 -3.7265 0.0218454
lfingers 7.12502 -0 0
lthumb 5.52281 26.1775 0.0207283
rclavicle 1.90225e-14 -1.07378e-14 1.98238e-30
rhumerus 25.4221 16.9304 -73.9675
rradius 134.011 -0 0
rwrist -44.0822 0 0
rhand -26.1171 -20.1509 0.00602248
rfingers 7.12502 -0 0
rthumb 0.43262 -50.1298 0.00582022
581
root 6.76344 16.2455 -3.45819 -163.5 79.5354 -169.306
lfemur -18.2304 4.85442 -18.5055
ltibia 48.0156 -0 0
lfoot -33.3126 8.42325 0.105139
ltoes 0.0454043 -0 0
rfemur -46.9469 -10.8437 12.4952
rtibia 50.6387 -0 0
rfoot 11.987 9.05983 0.00418278
rtoes -24.6793 0 0
lowerback 5.92422 -0.9489 -3.68242
upperback 2.43887 -1.33547 3.00807
thorax -0.634446 -0.669246 5.26862
lowerneck -4.991 -13.4896 -4.02518
upperneck 11.2542 -18.4373 5.99652
head 5.14137 -8.84314 1.25672
lclavicle 1.74373e-14 -7.89727e-15 1.8215e-30
lhumerus -33.1803 -21.6427 90.5229
lradius 53.6222 -0 0
lwrist 23.4958 0 0
lhand -20.6568 -3.4644 0.0200721
lfingers 7.12502 -0 0
lthumb 5.70564 26.4351 0.0190457
rclavicle 1.74373e-14 -7.89727e-15 1.8215e-30
rhumerus 25.4492 16.8775 -73.7866
rradius 134.006 -0 0
rwrist -44.0992 0 0
rhand -26.0364 -19.9815 0.00553368
rfingers 7.12502 -0 0
rthumb 0.510628 -49.9603 0.00534783
582
root 6.68448 16.2749 -3.44854 -161.2 80.7867 -166.94
lfemur -17.9675 5.02258 -18.5815
ltibia 47.3209 -0 0
lfoot -33.0151 9.2167 0.0920585
ltoes 0.445805 -0 0
rfemur -46.9607 -11.2428 12.9941
rtibia 52.1758 -0 0
rfoot 11.9221 8.91522 0.00366278
rtoes -23.4641 0 0
lowerback 5.71931 -0.973058 -3.90085
upperback 2.37188 -1.38475 2.8916
thorax -0.582146 -0.698264 5.27017
lowerneck -5.08993 -13.4328 -3.98515
upperneck 11.4386 -18.3811 6.03476
head 5.21188 -8.80403 1.25262
lclavicle 1.59267e-14 -5.19048e-15 1.59507e-30
lhumerus -31.8782 -22.5143 89.549
lradius 53.5175 -0 0
lwrist 23.7012 0 0
lhand -20.4764 -3.21466 0.0175764
lfingers 7.12502 -0 0
lthumb 5.87985 26.6805 0.0166776
rclavicle 1.59267e-14 -5.19048e-15 1.59507e-30
rhumerus 25.475 16.827 -73.6142
rradius 134.001 -0 0
rwrist -44.1155 0 0
rhand -25.9594 -19.8201 0.00484573
rfingers 7.12502 -0 0
rthumb 0.58496 -49.7988 0.00468299
583
root 6.61098 16.3024 -3.43957 -158.416 81.9338 -164.093
lfemur -17.7229 5.17941 -18.6516
ltibia 46.6742 -0 0
lfoot -32.7384 9.95517 0.0761824
ltoes 0.818496 -0 0
rfemur -46.9768 -11.6141 13.4591
rtibia 53.6065 -0 0
rfoot 11.8617 8.78062 0.00303151
rtoes -22.333 0 0
lowerback 5.52867 -0.996245 -4.10408
upperback 2.30963 -1.43074 2.78323
thorax -0.533465 -0.725276 5.2716
lowerneck -5.18196 -13.3798 -3.94799
upperneck 11.6102 -18.329 6.07052
head 5.27751 -8.76762 1.24885
lclavicle 1.45207e-14 -2.67098e-15 1.32018e-30
lhumerus -30.6445 -23.3068 88.6177
lradius 53.4201 -0 0
lwrist 23.8925 0 0
lhand -20.3084 -2.98221 0.0145467
lfingers 7.12502 -0 0
lthumb 6.042 26.9089 0.0138029
rclavicle 1.45207e-14 -2.67098e-15 1.32018e-30
rhumerus 25.4988 16.7799 -73.4538
rradius 133.997 -0 0
rwrist -44.1306 0 0
rhand -25.8878 -19.6699 0.00401057
rfingers 7.12502 -0 0
rthumb 0.654146 -49.6485 0.00387588
584
root 6.54451 16.3272 -3.43146 -155.117 82.9494 -160.739
lfemur -17.5017 5.3215 -18.7144
ltibia 46.0894 -0 0
lfoot -32.4883 10.6231 0.0587505
ltoes 1.15556 -0 0
rfemur -46.994 -11.9498 13.8803
rtibia 54.9005 -0 0
rfoot 11.807 8.65888 0.00233831
rtoes -21.31 0 0
lowerback 5.35633 -1.0178 -4.28782
upperback 2.25339 -1.47243 2.68526
thorax -0.489437 -0.749707 5.27287
lowerneck -5.26514 -13.3319 -3.91446
upperneck 11.7653 -18.2819 6.103
head 5.33685 -8.73468 1.24547
lclavicle 1.3249e-14 -3.92287e-16 1.01831e-30
lhumerus -29.5103 -24.0075 87.7547
lradius 53.332 -0 0
lwrist 24.0654 0 0
lhand -20.1566 -2.772 0.01122
lfingers 7.12502 -0 0
lthumb 6.18863 27.1155 0.0106463
rclavicle 1.3249e-14 -3.92287e-16 1.01831e-30
rhumerus 25.5202 16.7373 -73.3088
rradius 133.993 -0 0
rwrist -44.1443 0 0
rhand -25.823 -19.534 0.00309348
rfingers 7.12502 -0 0
rthumb 0.716718 -49.5125 0.00298959
585
root 6.48662 16.3488 -3.42439 -151.367 83.8086 -156.941
lfemur -17.3093 5.44543 -18.7686
ltibia 45.5801 -0 0
lfoot -32.2708 11.2046 0.0412008
ltoes 1.44909 -0 0
rfemur -47.0111 -12.2421 14.2476
rtibia 56.0274 -0 0
rfoot 11.7594 8.55287 0.00164005
rtoes -20.4192 0 0
lowerback 5.20631 -1.03702 -4.44778
upperback 2.20448 -1.50882 2.59998
thorax -0.451096 -0.770983 5.27396
lowerneck -5.33754 -13.2901 -3.88533
upperneck 11.9004 -18.241 6.13138
head 5.38853 -8.706 1.24256
lclavicle 1.21416e-14 1.5921e-15 7.14235e-31
lhumerus -28.5082 -24.6047 86.987
lradius 53.2552 -0 0
lwrist 24.216 0 0
lhand -20.0243 -2.58895 0.00786921
lfingers 7.12502 -0 0
lthumb 6.31631 27.2954 0.00746687
rclavicle 1.21416e-14 1.5921e-15 7.14235e-31
rhumerus 25.5387 16.7001 -73.1826
rradius 133.989 -0 0
rwrist -44.1562 0 0
rhand -25.7666 -19.4157 0.00216971
rfingers 7.12502 -0 0
rthumb 0.771205 -49.3941 0.00209684
586
root 6.43888 16.3667 -3.41857 -147.404 84.4914 -152.938
lfemur -17.1506 5.54777 -18.8131
ltibia 45.1601 -0 0
lfoot -32.0915 11.684 0.0250667
ltoes 1.69114 -0 0
rfemur -47.0266 -12.483 14.5509
rtibia 56.9567 -0 0
rfoot 11.7202 8.46545 0.000997928
rtoes -19.6844 0 0
lowerback 5.08262 -1.05318 -4.57965
upperback 2.16418 -1.53888 2.52967
thorax -0.419475 -0.788531 5.27485
lowerneck -5.39723 -13.2556 -3.86135
upperneck 12.0119 -18.2072 6.15486
head 5.43114 -8.68234 1.24018
lclavicle 1.12283e-14 3.22866e-15 4.34599e-31
lhumerus -27.6715 -25.0878 86.3426
lradius 53.192 -0 0
lwrist 24.3402 0 0
lhand -19.9153 -2.43799 0.00478802
lfingers 7.12502 -0 0
lthumb 6.4216 27.4438 0.00454323
rclavicle 1.12283e-14 3.22866e-15 4.34599e-31
rhumerus 25.5539 16.6694 -73.0785
rradius 133.986 -0 0
rwrist -44.1661 0 0
rhand -25.72 -19.3181 0.0013202
rfingers 7.12502 -0 0
rthumb 0.81614 -49.2965 0.00127587
587
root 6.40285 16.3801 -3.41417 -143.71 84.9848 -149.214
lfemur -17.0309 5.62509 -18.8464
ltibia 44.8431 -0 0
lfoot -31.9563 12.0459 0.0118957
ltoes 1.87385 -0 0
rfemur -47.0392 -12.6648 14.7801
rtibia 57.6582 -0 0
rfoot 11.6905 8.39946 0.000473616
rtoes -19.13 0 0
lowerback 4.9893 -1.06557 -4.67915
upperback 2.13379 -1.56161 2.47662
thorax -0.395609 -0.801776 5.27552
lowerneck -5.44226 -13.2296 -3.84328
upperneck 12.096 -18.1818 6.17262
head 5.4633 -8.66448 1.23839
lclavicle 1.0539e-14 4.46388e-15 2.06263e-31
lhumerus -27.0339 -25.4468 85.8493
lradius 53.1442 -0 0
lwrist 24.4339 0 0
lhand -19.833 -2.32406 0.0022723
lfingers 7.12502 -0 0
lthumb 6.50106 27.5557 0.00215613
rclavicle 1.0539e-14 4.46388e-15 2.06263e-31
rhumerus 25.5654 16.6463 -73
rradius 133.984 -0 0
rwrist -44.1735 0 0
rhand -25.6849 -19.2444 0.000626565
rfingers 7.12502 -0 0
rthumb 0.850053 -49.2228 0.000605523
588
root 6.38008 16.3886 -3.4114 -140.983 85.284 -146.468
lfemur -16.9553 5.67397 -18.8674
ltibia 44.6428 -0 0
lfoot -31.8709 12.2745 0.00313417
ltoes 1.98928 -0 0
rfemur -47.0475 -12.7797 14.925
rtibia 58.1012 -0 0
rfoot 11.6718 8.35777 0.00012479
rtoes -18.7797 0 0
lowerback 4.93035 -1.07348 -4.742
upperback 2.1146 -1.57598 2.44311
thorax -0.380532 -0.810143 5.27594
lowerneck -5.47071 -13.2131 -3.83187
upperneck 12.1491 -18.1658 6.18386
head 5.48362 -8.6532 1.23727
lclavicle 1.01035e-14 5.24425e-15 5.43476e-32
lhumerus -26.6284 -25.671 85.5347
lradius 53.114 -0 0
lwrist 24.4932 0 0
lhand -19.781 -2.25209 0.000598687
lfingers 7.12502 -0 0
lthumb 6.55125 27.6264 0.000568081
rclavicle 1.01035e-14 5.24425e-15 5.43476e-32
rhumerus 25.5726 16.6316 -72.9504
rradius 133.982 -0 0
rwrist -44.1782 0 0
rhand -25.6627 -19.1979 0.000165088
rfingers 7.12502 -0 0
rthumb 0.871478 -49.1762 0.000159544
589
root 6.37215 16.3916 -3.41043 -139.95 85.3855 -145.428
lfemur -16.9289 5.69101 -18.8747
ltibia 44.573 0 0
lfoot -31.8411 12.3542 0
ltoes 2.02952 0 0
rfemur -47.0505 -12.8197 14.9755
rtibia 58.2557 0 0
rfoot 11.6653 8.34324 0
rtoes -18.6576 0 0
lowerback 4.90981 -1.07625 -4.76391
upperback 2.10791 -1.58099 2.43143
thorax -0.375276 -0.81306 5.27608
lowerneck -5.48062 -13.2074 -3.8279
upperneck 12.1676 -18.1602 6.18778
head 5.4907 -8.64927 1.23688
lclavicle 9.95166e-15 5.51627e-15 0
lhumerus -26.4865 -25.7487 85.4245
lradius 53.1035 0 0
lwrist 24.5138 0 0
lhand -19.7629 -2.22701 0
lfingers 7.12502 0 0
lthumb 6.56875 27.6511 0
rclavicle 9.95166e-15 5.51627e-15 0
rhumerus 25.5751 16.6265 -72.9331
rradius 133.982 0 0
rwrist -44.1798 0 0
rhand -25.655 -19.1817 0
rfingers 7.12502 0 0
rthumb 0.878946 -769.16 0
